<svg xmlns="http://www.w3.org/2000/svg" xml:space="preserve" width="1000px" height="358px" x="0px" y="0px" viewBox="0 0 1000 358"><path fill="#74D8F1" d="M54.458 328.365h-8.112v28.651h-4.884v-28.651h-8.169v-4.283h21.165v4.283zM86.123 357.016H70.008v-32.934h16.059v4.29H74.863v9.996h11.26v4.23h-11.26v10.198h11.26zM106.409 340.908a15.164 15.164 0 0 0 .781 5.05 11.443 11.443 0 0 0 2.219 3.907 9.768 9.768 0 0 0 3.432 2.513 10.62 10.62 0 0 0 4.443.893c1.521 0 3.036-.209 4.5-.615a18.71 18.71 0 0 0 4.284-1.757v4.506a16.058 16.058 0 0 1-4.187 1.542 23.175 23.175 0 0 1-5.05.522 15.681 15.681 0 0 1-6.264-1.228 14.455 14.455 0 0 1-4.912-3.403 15.453 15.453 0 0 1-3.18-5.232 20.362 20.362 0 0 1 .083-13.631 16.468 16.468 0 0 1 3.377-5.455 15.096 15.096 0 0 1 5.099-3.572 15.776 15.776 0 0 1 6.432-1.284c.789 0 1.577.043 2.365.141.795.09 1.576.216 2.344.377.76.152 1.479.349 2.141.558a15.47 15.47 0 0 1 1.877.712v4.479a27.065 27.065 0 0 0-1.939-.769 24.677 24.677 0 0 0-2.219-.67 26.514 26.514 0 0 0-2.345-.475 16.098 16.098 0 0 0-2.315-.173c-3-.028-5.874 1.276-7.821 3.571a12.597 12.597 0 0 0-2.308 4.123 15.948 15.948 0 0 0-.837 5.37zM169.688 357.016h-4.904V342.38h-17.523v14.628h-4.912v-32.926h4.912v14.064h17.523v-14.064h4.904v32.926zM235.09 333.389c-.641-1.912-1.59-3.676-2.917-5.197a13.034 13.034 0 0 0-4.625-3.37 15.073 15.073 0 0 0-6.087-1.192 16.86 16.86 0 0 0-6.577 1.221 13.486 13.486 0 0 0-4.914 3.475 15.143 15.143 0 0 0-3.076 5.447 22.37 22.37 0 0 0-1.05 7.144 20.495 20.495 0 0 0 1.073 6.795 14.988 14.988 0 0 0 3.029 5.226 13.349 13.349 0 0 0 4.758 3.361 15.81 15.81 0 0 0 6.221 1.186 16.243 16.243 0 0 0 6.434-1.213 13.143 13.143 0 0 0 4.82-3.46c1.374-1.598 2.27-3.46 2.896-5.47.74-2.336.924-4.771.924-7.213v-.015c.001-2.282-.189-4.555-.909-6.725zm-3.845 7.261c.035 1.8-.189 3.592-.663 5.329a11.227 11.227 0 0 1-2.024 3.971 8.51 8.51 0 0 1-3.18 2.482 10.51 10.51 0 0 1-4.353.852 9.026 9.026 0 0 1-7.312-3.481 11.488 11.488 0 0 1-1.994-3.997 17.647 17.647 0 0 1-.719-5.19 17.273 17.273 0 0 1 .719-5.204 11.832 11.832 0 0 1 2.077-4.032 9.248 9.248 0 0 1 3.251-2.608 9.555 9.555 0 0 1 4.241-.928 9.965 9.965 0 0 1 4.284.878 8.43 8.43 0 0 1 3.14 2.532 11.388 11.388 0 0 1 1.911 4.025c.453 1.759.669 3.564.65 5.379l-.028-.008zM271.405 328.372h-8.121v28.65h-4.882v-28.657h-8.162v-4.283h21.165v4.283zM299.866 324h-4.728l-12.502 33h5.259l3.363-9h12.403l3.643 9h5.246l-12.684-33zm-7.037 19 3.914-10.952c.111-.308.237-.432.361-.885.125-.468.23-1.163.308-1.163h.097c.083 0 .181.738.307 1.205.133.447.237.603.32.84L302.225 343h-9.396zM350.486 357.022h-6.322l-11.475-12.669c-.245-.237-.494-.515-.774-.829s-.543-.635-.795-.927v14.425h-4.911v-32.927h4.911l.041 14.477c.349-.44.719-.888 1.103-1.334.377-.453.712-.816.893-1.108l10.241-12.034h5.888l-14.064 16.206 15.264 16.72zM377.217 353.389a9.278 9.278 0 0 0 3.32-.572 6.874 6.874 0 0 0 2.546-1.709 7.72 7.72 0 0 0 1.64-2.86c.418-1.29.615-2.644.586-4.005v-20.16h4.862v19.548a18.572 18.572 0 0 1-.92 6.11 11.53 11.53 0 0 1-2.666 4.36 11.036 11.036 0 0 1-4.234 2.623 16.833 16.833 0 0 1-5.603.878c-1.82.028-3.62-.258-5.342-.85a10.645 10.645 0 0 1-4.054-2.547 11.156 11.156 0 0 1-2.594-4.215 16.978 16.978 0 0 1-.908-5.846v-20.063h4.905v19.854a12.777 12.777 0 0 0 .601 4.108 8.055 8.055 0 0 0 1.695 2.952 7.278 7.278 0 0 0 2.665 1.778 9.877 9.877 0 0 0 3.473.601l.028.015zM425.798 347.814a10.44 10.44 0 0 1-.712 3.781 8.74 8.74 0 0 1-2.022 3.077 9.42 9.42 0 0 1-3.306 2.058c-1.48.529-3.035.781-4.597.752a19.31 19.31 0 0 1-2.533-.166 18.227 18.227 0 0 1-2.387-.475 16.891 16.891 0 0 1-2.105-.719 10.395 10.395 0 0 1-1.689-.899v-5.128c.593.426 1.222.815 1.877 1.151.733.391 1.5.732 2.281 1.019.774.285 1.569.53 2.371.711a8.923 8.923 0 0 0 2.15.279 7.725 7.725 0 0 0 2.525-.37 4.866 4.866 0 0 0 1.813-1.054 4.24 4.24 0 0 0 1.096-1.645c.25-.671.369-1.382.369-2.101a4.39 4.39 0 0 0-1.771-3.746 9.548 9.548 0 0 0-2.038-1.186c-.802-.363-1.688-.719-2.664-1.131a36.253 36.253 0 0 1-3.572-1.639 11.042 11.042 0 0 1-2.651-1.885 7.32 7.32 0 0 1-1.625-2.448 8.643 8.643 0 0 1-.551-3.293 8.42 8.42 0 0 1 3.055-6.654 10.34 10.34 0 0 1 3.32-1.827 12.687 12.687 0 0 1 4.075-.649c1.41-.021 2.803.125 4.185.426 1.165.265 2.309.634 3.412 1.102v4.577a17.967 17.967 0 0 0-1.668-.712 23.453 23.453 0 0 0-1.994-.6 26.526 26.526 0 0 0-2.093-.434 11.964 11.964 0 0 0-1.989-.167 7.247 7.247 0 0 0-2.345.342c-.634.202-1.22.53-1.723.956a3.86 3.86 0 0 0-1.073 1.43 4.568 4.568 0 0 0-.363 1.877c-.028.684.14 1.367.475 1.967a4.748 4.748 0 0 0 1.339 1.472c.655.481 1.36.88 2.107 1.201.823.362 1.744.745 2.755 1.158a32.12 32.12 0 0 1 3.467 1.638 11.038 11.038 0 0 1 2.587 1.96 7.874 7.874 0 0 1 1.64 2.547c.405 1.096.6 2.261.558 3.432l.014.015z"/><path fill="#4EA4DC" d="M479.29 347.8c0 1.298-.237 2.575-.712 3.782a8.573 8.573 0 0 1-2.022 3.076 9.338 9.338 0 0 1-3.307 2.058c-1.473.53-3.028.781-4.59.753-.852 0-1.689-.055-2.532-.166a17.213 17.213 0 0 1-4.493-1.195 10.462 10.462 0 0 1-1.696-.899v-5.113c.6.426 1.229.815 1.884 1.151.733.391 1.493.732 2.273 1.019.781.293 1.578.53 2.385.711a8.81 8.81 0 0 0 2.136.279 7.902 7.902 0 0 0 2.532-.37 4.914 4.914 0 0 0 1.813-1.054 4.164 4.164 0 0 0 1.096-1.645 5.74 5.74 0 0 0 .363-2.101 4.787 4.787 0 0 0-.46-2.197 4.852 4.852 0 0 0-1.312-1.549 9.541 9.541 0 0 0-2.037-1.186c-.795-.363-1.689-.719-2.665-1.131a37.92 37.92 0 0 1-3.572-1.639 11.124 11.124 0 0 1-2.637-1.885 6.975 6.975 0 0 1-1.633-2.448 8.785 8.785 0 0 1-.558-3.293 8.476 8.476 0 0 1 3.055-6.654 10.365 10.365 0 0 1 3.334-1.827 12.617 12.617 0 0 1 4.067-.649 18.22 18.22 0 0 1 4.179.426c1.171.265 2.315.634 3.418 1.102v4.577a17.318 17.318 0 0 0-1.675-.712 23.453 23.453 0 0 0-1.994-.6 25.8 25.8 0 0 0-2.093-.434 11.872 11.872 0 0 0-1.982-.167 7.2 7.2 0 0 0-2.343.342 5.097 5.097 0 0 0-1.73.956 4.01 4.01 0 0 0-1.075 1.43 4.79 4.79 0 0 0-.363 1.877 3.876 3.876 0 0 0 .482 1.967 4.77 4.77 0 0 0 1.346 1.472c.65.481 1.353.88 2.093 1.201.823.362 1.744.745 2.748 1.158a31.774 31.774 0 0 1 3.489 1.638c.949.524 1.82 1.187 2.58 1.96a7.87 7.87 0 0 1 1.633 2.547 8.781 8.781 0 0 1 .575 3.432zM508.13 324h-4.73l-12.503 33h5.254l3.354-9h12.406l3.626 9h5.254l-12.661-33zm-7.061 19 3.907-10.966c.118-.308.236-.421.362-.867.126-.475.237-1.167.313-1.167h.091c.085 0 .189.762.322 1.209.124.441.223.594.306.831l4.08 10.96h-9.381zM559.946 324.096l-12.55 32.934h-4.932l-12.348-32.934h5.254l7.986 22.297c.104.271.251.717.44 1.241.188.529.383 1.144.559 1.729.173.587.341 1.109.481 1.591.083.299.159.6.223.913 0-.09.055-.258.111-.522.069-.266.152-.572.25-.928.106-.355.225-.719.337-1.144.124-.427.249-.803.368-1.173l.315-1.024c.083-.309.152-.531.209-.712l8.189-22.295h5.105v.027zM589.665 357.029h-16.107v-32.933h16.057v4.291h-11.21v9.996h11.26v4.215h-11.26v10.198h11.26v4.22zM644.9 328.379h-8.119v28.65h-4.877v-28.664h-8.169v-4.283H644.9v4.283zM687.761 357.029h-4.883V342.38h-17.524v14.628h-4.911v-32.926h4.911v14.064h17.524v-14.064h4.903v32.926zM721.916 357.029h-16.114v-32.933h16.072v4.291h-11.217v9.996h11.259v4.215h-11.259v10.198h11.259v4.22zM801.721 324.096l-10.212 32.934h-4.759l-7.86-23.229a31.146 31.146 0 0 1-.468-1.694 10.938 10.938 0 0 1-.237-1.591h-.085a26.859 26.859 0 0 1-.717 3.229l-7.291 23.278h-4.784l-10.507-32.927h4.925l7.353 23.566c.161.529.309 1.059.42 1.597.124.559.209 1.123.249 1.695h.1c.069-.489.166-.964.285-1.431l.468-1.933 7.395-23.571h4.429l7.892 23.823c.138.46.264.935.403 1.431.14.522.223 1.053.272 1.598h.048c.063-.461.161-.921.287-1.361l.481-1.743 7.032-23.719h4.896l-.015.048zM843.87 333.402a15.399 15.399 0 0 0-2.985-5.204 13.189 13.189 0 0 0-4.661-3.37 15.175 15.175 0 0 0-6.104-1.193 16.76 16.76 0 0 0-6.584 1.223 13.584 13.584 0 0 0-4.92 3.467 15.199 15.199 0 0 0-3.075 5.454 22.349 22.349 0 0 0-1.054 7.144 20.438 20.438 0 0 0 1.067 6.795 15.136 15.136 0 0 0 3.035 5.232 13.324 13.324 0 0 0 4.757 3.348 15.571 15.571 0 0 0 6.223 1.186 16.108 16.108 0 0 0 6.432-1.213 13.186 13.186 0 0 0 4.82-3.453 15.443 15.443 0 0 0 3.035-5.477 22.998 22.998 0 0 0 1.061-7.213l.015-.015a20.516 20.516 0 0 0-1.062-6.711zm-3.97 7.248a18.743 18.743 0 0 1-.662 5.351 11.321 11.321 0 0 1-2.009 3.977 8.807 8.807 0 0 1-3.236 2.469c-1.382.587-2.86.879-4.354.853a9.34 9.34 0 0 1-4.156-.921 9.144 9.144 0 0 1-3.154-2.568 11.726 11.726 0 0 1-2.01-3.989 18.199 18.199 0 0 1-.71-5.197c-.028-1.759.209-3.51.71-5.197a12.205 12.205 0 0 1 2.072-4.04 9.604 9.604 0 0 1 3.251-2.608 9.58 9.58 0 0 1 4.291-.928 9.953 9.953 0 0 1 4.283.879 8.425 8.425 0 0 1 3.138 2.524 11.593 11.593 0 0 1 1.913 4.032c.453 1.759.669 3.565.647 5.379l-.014-.016zM873.352 341.646a10.507 10.507 0 0 0 2.763-1.065 9.823 9.823 0 0 0 2.371-1.866 8.863 8.863 0 0 0 1.668-2.621 8.424 8.424 0 0 0 .634-3.335 8.297 8.297 0 0 0-.935-4.156 7.245 7.245 0 0 0-2.568-2.651c-1.177-.712-2.482-1.24-3.835-1.478-1.578-.293-3.183-.474-4.787-.474H862v33h4v-15h2.518l8.956 15h5.784l-9.906-15.354zm-4.69-2.646H866v-10h2.914c1.758 0 3.529-.059 5.093.764 1.13.768 1.759 1.938 1.653 3.298l-.014-.09c.098 1.575-.564 3.352-1.794 4.356-1.521 1.06-3.348 1.672-5.19 1.672zM913.078 357.029h-15.465v-32.933h4.911v28.707h10.554v4.219zM955.634 339.918a17.631 17.631 0 0 0-1.277-6.851 12.832 12.832 0 0 0-3.571-4.96c-1.696-1.395-3.669-2.469-5.791-3.047a29.197 29.197 0 0 0-7.806-1.061H929v33h7.818c2.595 0 5.169-.368 7.618-1.206a17.218 17.218 0 0 0 5.95-3.465 15.516 15.516 0 0 0 3.871-5.405 17.081 17.081 0 0 0 1.388-6.993l-.011-.012zm-5.06.049a13.803 13.803 0 0 1-.976 5.295 11.064 11.064 0 0 1-2.784 4.038c-1.276 1.151-2.77 2.14-4.402 2.685-1.854.627-3.795 1.016-5.755 1.016H933v-24h4.099c1.903 0 3.802-.129 5.65.344 1.548.393 2.998.955 4.241 1.967 1.17.971 2.079 2.131 2.663 3.54a13.07 13.07 0 0 1 .936 5.171l-.015-.056z"/><path fill="#74D8F1" d="M288.922 55.677c-15.271.336-27.912-11.765-28.247-27.028C260.341 13.382 272.437.738 287.7.404c15.27-.335 27.919 11.765 28.254 27.028v.61c.167 15.096-11.937 27.468-27.032 27.635zM264.276 114.774c-.46-13.61 10.198-25.02 23.802-25.483 13.618-.464 25.021 10.191 25.489 23.806.014.559.014 1.119 0 1.678v87.938c.866 37.95-29.201 69.412-67.143 70.277-37.949.865-69.412-29.188-70.276-67.138a78.259 78.259 0 0 1 0-3.14v-51.426c.285-10.708-8.156-19.624-18.857-19.917-10.714-.289-19.63 8.155-19.923 18.863V247.582c.335 13.617-10.437 24.919-24.046 25.239-13.611.335-24.913-10.436-25.24-24.046a33.89 33.89 0 0 1 0-1.193v-96.311c.202-10.711-8.309-19.557-19.024-19.763-10.701-.206-19.554 8.309-19.755 19.017-.007.248-.007.495 0 .746v96.311c.46 13.617-10.199 25.023-23.802 25.491C11.883 273.533.47 262.874.01 249.264a33.725 33.725 0 0 1 0-1.683V141.862c-.362-33.426 26.439-60.816 59.868-61.184a59.287 59.287 0 0 1 46.182 22.247c2.615 3.708 7.743 4.59 11.454 1.971a8.094 8.094 0 0 0 1.967-1.971 59.285 59.285 0 0 1 46.182-22.247c33.4.395 60.182 27.775 59.826 61.184v59.791c-.294 10.708 8.147 19.624 18.863 19.916 10.701.287 19.615-8.155 19.909-18.863.014-.349.014-.704 0-1.053v-86.879h.015z"/><path fill="#4EA4DC" d="m977.907 87.659-.015.014a31.12 31.12 0 0 1 22.107-10.778 51.77 51.77 0 0 0-30.952-3.481c-12.382 2.651-18.724 12.145-24.834 14.287a26.129 26.129 0 0 1-11.622-1.248 70.836 70.836 0 0 0-26.133-5.002c-45.086 0-81.634 42.805-81.634 95.603s36.534 95.532 81.648 95.532c45.106 0 81.632-42.805 81.632-95.592a106.791 106.791 0 0 0-14.565-54.51c-1.206-4.393-5.294-22.631 4.368-34.825zm-71.433 137.309-.015.014c-22.546 0-40.823-21.473-40.823-47.964 0-26.488 18.27-48.012 40.838-48.012 22.561 0 40.809 21.479 40.809 47.974s-18.292 47.988-40.809 47.988zM741.812 247.583V125.549l-48.707-90.123a17.215 17.215 0 0 1-2.147-8.249c-.266-6.111 4.479-11.276 10.59-11.542a9.2 9.2 0 0 1 .445-.01h24.137a11.875 11.875 0 0 1 10.54 6.501l26 48.089a5.38 5.38 0 0 0 4.005 2.767 4.69 4.69 0 0 0 3.698-2.78l25.21-46.631a12.036 12.036 0 0 1 10.826-7.945h24.151c6.104-.304 11.301 4.401 11.609 10.509.013.321.013.642 0 .963a15.98 15.98 0 0 1-2.136 8.13l-48.964 90.577v121.738c-.564 13.616-12.062 24.186-25.679 23.62-12.809-.537-23.078-10.807-23.607-23.62M686.241 100.118a12.78 12.78 0 0 1-6.097-4.682 184.523 184.523 0 0 0-5.512-5.043c-1.431-1.263-2.944-2.428-4.186-3.369a7.674 7.674 0 0 1-4.019-4.615 8.074 8.074 0 0 1 4.521-4.572l11.328-8.064a11.255 11.255 0 0 1 5.009-2.645 38.335 38.335 0 0 1 2.037 17.015c.042-1.476-.586 15.326-3.05 15.996l-.031-.021zM615.964 81.401l-.027-.021c-45.093 0-81.634 42.805-81.634 95.599 0 52.801 36.575 95.605 81.661 95.605 45.094 0 81.641-42.805 81.641-95.592-.001-52.786-36.554-95.591-81.641-95.591zm0 143.599h-.027c-22.546 0-40.824-21.503-40.824-47.991s18.312-47.996 40.852-47.996c22.546 0 40.824 21.492 40.824 47.986C656.788 203.495 638.51 225 615.964 225zM556.87 90.337c-1.945 1.703-3.906 3.572-5.489 5.059a12.763 12.763 0 0 1-6.077 4.701c-2.447-.673-3.076-17.537-3.063-16.037a38.675 38.675 0 0 1 2.037-17.088 11.12 11.12 0 0 1 4.967 2.657l11.287 8.093a8.084 8.084 0 0 1 4.507 4.587 7.703 7.703 0 0 1-4.011 4.635c-1.227.952-2.7 2.131-4.158 3.393zM475.656 272.243c-13.687-.146-24.696-11.309-24.661-25.002v-67.81c.069-6.269-4.953-11.402-11.216-11.473h-26.538c-6.263.066-11.294 5.201-11.23 11.47V247.206c.475 13.609-10.186 25.022-23.802 25.49-13.604.46-25.017-10.198-25.484-23.81a22.434 22.434 0 0 1 0-1.681V40.728c-.467-13.61 10.193-25.022 23.809-25.486 13.604-.464 25.017 10.195 25.477 23.806a16.83 16.83 0 0 1 0 1.681v62.561c-.064 6.251 4.939 11.378 11.19 11.473h26.579c6.263-.07 11.286-5.204 11.216-11.473V40.728c-.46-13.61 10.198-25.022 23.802-25.486 13.618-.464 25.031 10.195 25.491 23.806.014.562.014 1.119 0 1.681v206.486c.054 13.692-10.939 24.868-24.633 25.028z"/></svg>